<mxfile host="app.diagrams.net" modified="2020-11-16T06:28:09.187Z" agent="5.0 (Macintosh; Intel Mac OS X 10_15_5) AppleWebKit/537.36 (KHTML, like Gecko) Chrome/85.0.4183.121 Safari/537.36" etag="YqGlZLKjig62mzDbP-z2" version="13.9.9" type="github">
  <diagram id="7SEDq2CRowtUZ0Ws3rdv" name="Page-1">
    <mxGraphModel dx="2094" dy="831" grid="1" gridSize="10" guides="1" tooltips="1" connect="1" arrows="1" fold="1" page="1" pageScale="1" pageWidth="1500" pageHeight="100" background="#FFFFFF" math="0" shadow="0">
      <root>
        <mxCell id="0" />
        <mxCell id="1" parent="0" />
        <mxCell id="lR68MJNOwg3whfcfsT1g-1" value="" style="whiteSpace=wrap;html=1;aspect=fixed;strokeWidth=2;fillColor=none;rounded=1;arcSize=7;glass=0;sketch=0;shadow=0;perimeterSpacing=0;" vertex="1" parent="1">
          <mxGeometry x="30" y="340" width="330" height="330" as="geometry" />
        </mxCell>
      </root>
    </mxGraphModel>
  </diagram>
</mxfile>
